<mxfile host="app.diagrams.net" modified="2023-05-23T09:36:45.486Z" agent="Mozilla/5.0 (Windows NT 10.0; Win64; x64) AppleWebKit/537.36 (KHTML, like Gecko) Chrome/113.0.0.0 Safari/537.36 Edg/113.0.1774.42" etag="VEBKLVV_ILu2mhKYVGfb" version="21.3.2" type="github" pages="2">
  <diagram name="Page-1" id="ED-wdkVhGk9rlP0CMtRQ">
    <mxGraphModel dx="948" dy="573" grid="1" gridSize="10" guides="1" tooltips="1" connect="1" arrows="1" fold="1" page="1" pageScale="1" pageWidth="827" pageHeight="1169" math="0" shadow="0">
      <root>
        <mxCell id="0" />
        <mxCell id="1" parent="0" />
        <mxCell id="-4Mw54ADf8AVJ8vVyzbt-16" value="" style="shape=or;whiteSpace=wrap;html=1;" parent="1" vertex="1">
          <mxGeometry x="160" y="180" width="60" height="80" as="geometry" />
        </mxCell>
        <mxCell id="-4Mw54ADf8AVJ8vVyzbt-17" value="" style="ellipse;whiteSpace=wrap;html=1;aspect=fixed;" parent="1" vertex="1">
          <mxGeometry x="220" y="215" width="10" height="10" as="geometry" />
        </mxCell>
        <mxCell id="-4Mw54ADf8AVJ8vVyzbt-24" value="" style="shape=or;whiteSpace=wrap;html=1;" parent="1" vertex="1">
          <mxGeometry x="360" y="320" width="60" height="80" as="geometry" />
        </mxCell>
        <mxCell id="-4Mw54ADf8AVJ8vVyzbt-25" value="" style="ellipse;whiteSpace=wrap;html=1;aspect=fixed;" parent="1" vertex="1">
          <mxGeometry x="420" y="355" width="10" height="10" as="geometry" />
        </mxCell>
        <mxCell id="-4Mw54ADf8AVJ8vVyzbt-26" value="" style="shape=or;whiteSpace=wrap;html=1;" parent="1" vertex="1">
          <mxGeometry x="360" y="160" width="60" height="80" as="geometry" />
        </mxCell>
        <mxCell id="-4Mw54ADf8AVJ8vVyzbt-27" value="" style="ellipse;whiteSpace=wrap;html=1;aspect=fixed;" parent="1" vertex="1">
          <mxGeometry x="420" y="195" width="10" height="10" as="geometry" />
        </mxCell>
        <mxCell id="-4Mw54ADf8AVJ8vVyzbt-28" value="" style="shape=or;whiteSpace=wrap;html=1;" parent="1" vertex="1">
          <mxGeometry x="520" y="240" width="60" height="80" as="geometry" />
        </mxCell>
        <mxCell id="-4Mw54ADf8AVJ8vVyzbt-29" value="" style="ellipse;whiteSpace=wrap;html=1;aspect=fixed;" parent="1" vertex="1">
          <mxGeometry x="580" y="275" width="10" height="10" as="geometry" />
        </mxCell>
        <mxCell id="-4Mw54ADf8AVJ8vVyzbt-31" value="" style="endArrow=none;html=1;rounded=0;" parent="1" edge="1">
          <mxGeometry width="50" height="50" relative="1" as="geometry">
            <mxPoint x="80" y="340" as="sourcePoint" />
            <mxPoint x="80" y="80" as="targetPoint" />
          </mxGeometry>
        </mxCell>
        <mxCell id="-4Mw54ADf8AVJ8vVyzbt-32" value="" style="endArrow=none;html=1;rounded=0;entryX=0;entryY=0.25;entryDx=0;entryDy=0;entryPerimeter=0;" parent="1" target="-4Mw54ADf8AVJ8vVyzbt-16" edge="1">
          <mxGeometry width="50" height="50" relative="1" as="geometry">
            <mxPoint x="80" y="200" as="sourcePoint" />
            <mxPoint x="150" y="190" as="targetPoint" />
          </mxGeometry>
        </mxCell>
        <mxCell id="-4Mw54ADf8AVJ8vVyzbt-33" value="" style="endArrow=none;html=1;rounded=0;entryX=0;entryY=0.75;entryDx=0;entryDy=0;entryPerimeter=0;" parent="1" target="-4Mw54ADf8AVJ8vVyzbt-16" edge="1">
          <mxGeometry width="50" height="50" relative="1" as="geometry">
            <mxPoint x="80" y="240" as="sourcePoint" />
            <mxPoint x="160" y="280" as="targetPoint" />
          </mxGeometry>
        </mxCell>
        <mxCell id="-4Mw54ADf8AVJ8vVyzbt-34" value="" style="endArrow=none;html=1;rounded=0;entryX=0;entryY=0.25;entryDx=0;entryDy=0;entryPerimeter=0;" parent="1" target="-4Mw54ADf8AVJ8vVyzbt-24" edge="1">
          <mxGeometry width="50" height="50" relative="1" as="geometry">
            <mxPoint x="80" y="340" as="sourcePoint" />
            <mxPoint x="190" y="330" as="targetPoint" />
          </mxGeometry>
        </mxCell>
        <mxCell id="-4Mw54ADf8AVJ8vVyzbt-35" value="" style="endArrow=none;html=1;rounded=0;" parent="1" edge="1">
          <mxGeometry width="50" height="50" relative="1" as="geometry">
            <mxPoint x="200" y="480" as="sourcePoint" />
            <mxPoint x="200" y="380" as="targetPoint" />
          </mxGeometry>
        </mxCell>
        <mxCell id="-4Mw54ADf8AVJ8vVyzbt-36" value="" style="endArrow=none;html=1;rounded=0;entryX=0;entryY=0.75;entryDx=0;entryDy=0;entryPerimeter=0;" parent="1" target="-4Mw54ADf8AVJ8vVyzbt-24" edge="1">
          <mxGeometry width="50" height="50" relative="1" as="geometry">
            <mxPoint x="200" y="380" as="sourcePoint" />
            <mxPoint x="330" y="380" as="targetPoint" />
          </mxGeometry>
        </mxCell>
        <mxCell id="-4Mw54ADf8AVJ8vVyzbt-37" value="" style="endArrow=none;html=1;rounded=0;" parent="1" edge="1">
          <mxGeometry width="50" height="50" relative="1" as="geometry">
            <mxPoint x="240" y="180" as="sourcePoint" />
            <mxPoint x="240" y="80" as="targetPoint" />
          </mxGeometry>
        </mxCell>
        <mxCell id="-4Mw54ADf8AVJ8vVyzbt-38" value="" style="endArrow=none;html=1;rounded=0;entryX=0;entryY=0.25;entryDx=0;entryDy=0;entryPerimeter=0;" parent="1" target="-4Mw54ADf8AVJ8vVyzbt-26" edge="1">
          <mxGeometry width="50" height="50" relative="1" as="geometry">
            <mxPoint x="240" y="180" as="sourcePoint" />
            <mxPoint x="330" y="170" as="targetPoint" />
          </mxGeometry>
        </mxCell>
        <mxCell id="-4Mw54ADf8AVJ8vVyzbt-39" value="" style="endArrow=none;html=1;rounded=0;exitX=1;exitY=0.5;exitDx=0;exitDy=0;entryX=0;entryY=0.75;entryDx=0;entryDy=0;entryPerimeter=0;" parent="1" source="-4Mw54ADf8AVJ8vVyzbt-17" target="-4Mw54ADf8AVJ8vVyzbt-26" edge="1">
          <mxGeometry width="50" height="50" relative="1" as="geometry">
            <mxPoint x="280" y="270" as="sourcePoint" />
            <mxPoint x="330" y="220" as="targetPoint" />
          </mxGeometry>
        </mxCell>
        <mxCell id="-4Mw54ADf8AVJ8vVyzbt-40" value="" style="endArrow=none;html=1;rounded=0;" parent="1" edge="1">
          <mxGeometry width="50" height="50" relative="1" as="geometry">
            <mxPoint x="480" y="360" as="sourcePoint" />
            <mxPoint x="480" y="300" as="targetPoint" />
          </mxGeometry>
        </mxCell>
        <mxCell id="-4Mw54ADf8AVJ8vVyzbt-41" value="" style="endArrow=none;html=1;rounded=0;exitX=1;exitY=0.5;exitDx=0;exitDy=0;" parent="1" source="-4Mw54ADf8AVJ8vVyzbt-25" edge="1">
          <mxGeometry width="50" height="50" relative="1" as="geometry">
            <mxPoint x="450" y="430" as="sourcePoint" />
            <mxPoint x="480" y="360" as="targetPoint" />
          </mxGeometry>
        </mxCell>
        <mxCell id="-4Mw54ADf8AVJ8vVyzbt-42" value="" style="endArrow=none;html=1;rounded=0;exitX=1;exitY=0.5;exitDx=0;exitDy=0;" parent="1" source="-4Mw54ADf8AVJ8vVyzbt-27" edge="1">
          <mxGeometry width="50" height="50" relative="1" as="geometry">
            <mxPoint x="460" y="250" as="sourcePoint" />
            <mxPoint x="480" y="200" as="targetPoint" />
          </mxGeometry>
        </mxCell>
        <mxCell id="-4Mw54ADf8AVJ8vVyzbt-43" value="" style="endArrow=none;html=1;rounded=0;" parent="1" edge="1">
          <mxGeometry width="50" height="50" relative="1" as="geometry">
            <mxPoint x="480" y="260" as="sourcePoint" />
            <mxPoint x="480" y="200" as="targetPoint" />
          </mxGeometry>
        </mxCell>
        <mxCell id="-4Mw54ADf8AVJ8vVyzbt-44" value="" style="endArrow=none;html=1;rounded=0;exitX=0;exitY=0.25;exitDx=0;exitDy=0;exitPerimeter=0;" parent="1" source="-4Mw54ADf8AVJ8vVyzbt-28" edge="1">
          <mxGeometry width="50" height="50" relative="1" as="geometry">
            <mxPoint x="390" y="320" as="sourcePoint" />
            <mxPoint x="480" y="260" as="targetPoint" />
          </mxGeometry>
        </mxCell>
        <mxCell id="-4Mw54ADf8AVJ8vVyzbt-45" value="" style="endArrow=none;html=1;rounded=0;entryX=0;entryY=0.75;entryDx=0;entryDy=0;entryPerimeter=0;" parent="1" target="-4Mw54ADf8AVJ8vVyzbt-28" edge="1">
          <mxGeometry width="50" height="50" relative="1" as="geometry">
            <mxPoint x="480" y="300" as="sourcePoint" />
            <mxPoint x="480" y="280" as="targetPoint" />
          </mxGeometry>
        </mxCell>
        <mxCell id="-4Mw54ADf8AVJ8vVyzbt-46" value="" style="endArrow=none;html=1;rounded=0;exitX=1;exitY=0.5;exitDx=0;exitDy=0;" parent="1" source="-4Mw54ADf8AVJ8vVyzbt-29" edge="1">
          <mxGeometry width="50" height="50" relative="1" as="geometry">
            <mxPoint x="580" y="320" as="sourcePoint" />
            <mxPoint x="760" y="280" as="targetPoint" />
          </mxGeometry>
        </mxCell>
        <mxCell id="-4Mw54ADf8AVJ8vVyzbt-47" value="&lt;font style=&quot;font-size: 24px;&quot;&gt;&lt;b&gt;S&lt;/b&gt;&lt;/font&gt;" style="text;strokeColor=none;align=center;fillColor=none;html=1;verticalAlign=middle;whiteSpace=wrap;rounded=0;" parent="1" vertex="1">
          <mxGeometry x="70" y="50" width="20" height="20" as="geometry" />
        </mxCell>
        <mxCell id="-4Mw54ADf8AVJ8vVyzbt-48" value="&lt;font style=&quot;font-size: 24px;&quot;&gt;&lt;b&gt;D0&lt;/b&gt;&lt;/font&gt;" style="text;strokeColor=none;align=center;fillColor=none;html=1;verticalAlign=middle;whiteSpace=wrap;rounded=0;" parent="1" vertex="1">
          <mxGeometry x="210" y="45" width="60" height="30" as="geometry" />
        </mxCell>
        <mxCell id="-4Mw54ADf8AVJ8vVyzbt-49" value="&lt;font style=&quot;font-size: 24px;&quot;&gt;&lt;b&gt;D1&lt;/b&gt;&lt;/font&gt;" style="text;strokeColor=none;align=center;fillColor=none;html=1;verticalAlign=middle;whiteSpace=wrap;rounded=0;" parent="1" vertex="1">
          <mxGeometry x="170" y="480" width="60" height="30" as="geometry" />
        </mxCell>
        <mxCell id="-4Mw54ADf8AVJ8vVyzbt-50" value="&lt;span style=&quot;font-size: 24px;&quot;&gt;&lt;b&gt;G1&lt;/b&gt;&lt;/span&gt;" style="text;strokeColor=none;align=center;fillColor=none;html=1;verticalAlign=middle;whiteSpace=wrap;rounded=0;" parent="1" vertex="1">
          <mxGeometry x="160" y="205" width="60" height="30" as="geometry" />
        </mxCell>
        <mxCell id="-4Mw54ADf8AVJ8vVyzbt-51" value="&lt;font style=&quot;font-size: 24px;&quot;&gt;&lt;b&gt;G2&lt;/b&gt;&lt;/font&gt;" style="text;strokeColor=none;align=center;fillColor=none;html=1;verticalAlign=middle;whiteSpace=wrap;rounded=0;" parent="1" vertex="1">
          <mxGeometry x="360" y="185" width="60" height="30" as="geometry" />
        </mxCell>
        <mxCell id="-4Mw54ADf8AVJ8vVyzbt-52" value="&lt;font style=&quot;font-size: 24px;&quot;&gt;&lt;b&gt;G3&lt;/b&gt;&lt;/font&gt;" style="text;strokeColor=none;align=center;fillColor=none;html=1;verticalAlign=middle;whiteSpace=wrap;rounded=0;" parent="1" vertex="1">
          <mxGeometry x="360" y="345" width="60" height="30" as="geometry" />
        </mxCell>
        <mxCell id="-4Mw54ADf8AVJ8vVyzbt-53" value="&lt;font style=&quot;font-size: 24px;&quot;&gt;&lt;b&gt;G4&lt;/b&gt;&lt;/font&gt;" style="text;strokeColor=none;align=center;fillColor=none;html=1;verticalAlign=middle;whiteSpace=wrap;rounded=0;" parent="1" vertex="1">
          <mxGeometry x="520" y="265" width="60" height="30" as="geometry" />
        </mxCell>
      </root>
    </mxGraphModel>
  </diagram>
  <diagram id="lUCXrQ0TmwFm1VE_f0JS" name="Page-2">
    <mxGraphModel dx="862" dy="521" grid="1" gridSize="10" guides="1" tooltips="1" connect="1" arrows="1" fold="1" page="1" pageScale="1" pageWidth="827" pageHeight="1169" math="0" shadow="0">
      <root>
        <mxCell id="0" />
        <mxCell id="1" parent="0" />
        <mxCell id="pb3BleHSzqYTry7h2N2h-1" value="" style="rounded=0;whiteSpace=wrap;html=1;" vertex="1" parent="1">
          <mxGeometry x="180" y="170" width="180" height="70" as="geometry" />
        </mxCell>
        <mxCell id="pb3BleHSzqYTry7h2N2h-2" value="&lt;span style=&quot;font-size: 24px;&quot;&gt;&lt;b&gt;Sel 1&lt;/b&gt;&lt;/span&gt;" style="text;strokeColor=none;align=center;fillColor=none;html=1;verticalAlign=middle;whiteSpace=wrap;rounded=0;" vertex="1" parent="1">
          <mxGeometry x="270" y="190" width="60" height="30" as="geometry" />
        </mxCell>
        <mxCell id="pb3BleHSzqYTry7h2N2h-6" value="&lt;font style=&quot;font-size: 14px;&quot;&gt;&lt;b style=&quot;&quot;&gt;D0&lt;/b&gt;&lt;/font&gt;" style="text;strokeColor=none;align=center;fillColor=none;html=1;verticalAlign=middle;whiteSpace=wrap;rounded=0;" vertex="1" parent="1">
          <mxGeometry x="170" y="180" width="60" height="30" as="geometry" />
        </mxCell>
        <mxCell id="pb3BleHSzqYTry7h2N2h-7" value="&lt;font style=&quot;font-size: 14px;&quot;&gt;&lt;b style=&quot;&quot;&gt;D1&lt;/b&gt;&lt;/font&gt;" style="text;strokeColor=none;align=center;fillColor=none;html=1;verticalAlign=middle;whiteSpace=wrap;rounded=0;" vertex="1" parent="1">
          <mxGeometry x="170" y="200" width="60" height="30" as="geometry" />
        </mxCell>
        <mxCell id="pb3BleHSzqYTry7h2N2h-8" value="&lt;font style=&quot;font-size: 14px;&quot;&gt;&lt;b&gt;Sel&lt;/b&gt;&lt;/font&gt;" style="text;strokeColor=none;align=center;fillColor=none;html=1;verticalAlign=middle;whiteSpace=wrap;rounded=0;" vertex="1" parent="1">
          <mxGeometry x="210" y="170" width="60" height="30" as="geometry" />
        </mxCell>
        <mxCell id="pb3BleHSzqYTry7h2N2h-9" value="" style="rounded=0;whiteSpace=wrap;html=1;" vertex="1" parent="1">
          <mxGeometry x="180" y="350" width="180" height="70" as="geometry" />
        </mxCell>
        <mxCell id="pb3BleHSzqYTry7h2N2h-10" value="&lt;span style=&quot;font-size: 24px;&quot;&gt;&lt;b&gt;Sel 2&lt;/b&gt;&lt;/span&gt;" style="text;strokeColor=none;align=center;fillColor=none;html=1;verticalAlign=middle;whiteSpace=wrap;rounded=0;" vertex="1" parent="1">
          <mxGeometry x="270" y="370" width="60" height="30" as="geometry" />
        </mxCell>
        <mxCell id="pb3BleHSzqYTry7h2N2h-11" value="&lt;font style=&quot;font-size: 14px;&quot;&gt;&lt;b style=&quot;&quot;&gt;D0&lt;/b&gt;&lt;/font&gt;" style="text;strokeColor=none;align=center;fillColor=none;html=1;verticalAlign=middle;whiteSpace=wrap;rounded=0;" vertex="1" parent="1">
          <mxGeometry x="170" y="360" width="60" height="30" as="geometry" />
        </mxCell>
        <mxCell id="pb3BleHSzqYTry7h2N2h-12" value="&lt;font style=&quot;font-size: 14px;&quot;&gt;&lt;b style=&quot;&quot;&gt;D1&lt;/b&gt;&lt;/font&gt;" style="text;strokeColor=none;align=center;fillColor=none;html=1;verticalAlign=middle;whiteSpace=wrap;rounded=0;" vertex="1" parent="1">
          <mxGeometry x="170" y="380" width="60" height="30" as="geometry" />
        </mxCell>
        <mxCell id="pb3BleHSzqYTry7h2N2h-13" value="&lt;font style=&quot;font-size: 14px;&quot;&gt;&lt;b&gt;Sel&lt;/b&gt;&lt;/font&gt;" style="text;strokeColor=none;align=center;fillColor=none;html=1;verticalAlign=middle;whiteSpace=wrap;rounded=0;" vertex="1" parent="1">
          <mxGeometry x="210" y="350" width="60" height="30" as="geometry" />
        </mxCell>
        <mxCell id="pb3BleHSzqYTry7h2N2h-14" value="" style="rounded=0;whiteSpace=wrap;html=1;" vertex="1" parent="1">
          <mxGeometry x="510" y="260" width="180" height="70" as="geometry" />
        </mxCell>
        <mxCell id="pb3BleHSzqYTry7h2N2h-15" value="&lt;span style=&quot;font-size: 24px;&quot;&gt;&lt;b&gt;Sel 3&lt;/b&gt;&lt;/span&gt;" style="text;strokeColor=none;align=center;fillColor=none;html=1;verticalAlign=middle;whiteSpace=wrap;rounded=0;" vertex="1" parent="1">
          <mxGeometry x="600" y="280" width="60" height="30" as="geometry" />
        </mxCell>
        <mxCell id="pb3BleHSzqYTry7h2N2h-16" value="&lt;font style=&quot;font-size: 14px;&quot;&gt;&lt;b style=&quot;&quot;&gt;D0&lt;/b&gt;&lt;/font&gt;" style="text;strokeColor=none;align=center;fillColor=none;html=1;verticalAlign=middle;whiteSpace=wrap;rounded=0;" vertex="1" parent="1">
          <mxGeometry x="500" y="270" width="60" height="30" as="geometry" />
        </mxCell>
        <mxCell id="pb3BleHSzqYTry7h2N2h-17" value="&lt;font style=&quot;font-size: 14px;&quot;&gt;&lt;b style=&quot;&quot;&gt;D1&lt;/b&gt;&lt;/font&gt;" style="text;strokeColor=none;align=center;fillColor=none;html=1;verticalAlign=middle;whiteSpace=wrap;rounded=0;" vertex="1" parent="1">
          <mxGeometry x="500" y="290" width="60" height="30" as="geometry" />
        </mxCell>
        <mxCell id="pb3BleHSzqYTry7h2N2h-18" value="&lt;font style=&quot;font-size: 14px;&quot;&gt;&lt;b&gt;Sel&lt;/b&gt;&lt;/font&gt;" style="text;strokeColor=none;align=center;fillColor=none;html=1;verticalAlign=middle;whiteSpace=wrap;rounded=0;" vertex="1" parent="1">
          <mxGeometry x="540" y="260" width="60" height="30" as="geometry" />
        </mxCell>
        <mxCell id="pb3BleHSzqYTry7h2N2h-19" value="" style="endArrow=none;html=1;rounded=0;entryX=0.167;entryY=0.333;entryDx=0;entryDy=0;entryPerimeter=0;" edge="1" parent="1" target="pb3BleHSzqYTry7h2N2h-6">
          <mxGeometry width="50" height="50" relative="1" as="geometry">
            <mxPoint x="90" y="190" as="sourcePoint" />
            <mxPoint x="150" y="190" as="targetPoint" />
          </mxGeometry>
        </mxCell>
        <mxCell id="pb3BleHSzqYTry7h2N2h-20" value="" style="endArrow=none;html=1;rounded=0;" edge="1" parent="1">
          <mxGeometry width="50" height="50" relative="1" as="geometry">
            <mxPoint x="90" y="215" as="sourcePoint" />
            <mxPoint x="180" y="215" as="targetPoint" />
            <Array as="points" />
          </mxGeometry>
        </mxCell>
        <mxCell id="pb3BleHSzqYTry7h2N2h-21" value="" style="endArrow=none;html=1;rounded=0;entryX=0.167;entryY=0.333;entryDx=0;entryDy=0;entryPerimeter=0;" edge="1" parent="1">
          <mxGeometry width="50" height="50" relative="1" as="geometry">
            <mxPoint x="90" y="374" as="sourcePoint" />
            <mxPoint x="180" y="374" as="targetPoint" />
          </mxGeometry>
        </mxCell>
        <mxCell id="pb3BleHSzqYTry7h2N2h-22" value="" style="endArrow=none;html=1;rounded=0;" edge="1" parent="1">
          <mxGeometry width="50" height="50" relative="1" as="geometry">
            <mxPoint x="90" y="399" as="sourcePoint" />
            <mxPoint x="180" y="399" as="targetPoint" />
            <Array as="points" />
          </mxGeometry>
        </mxCell>
        <mxCell id="pb3BleHSzqYTry7h2N2h-24" value="" style="endArrow=none;html=1;rounded=0;exitX=1;exitY=0.5;exitDx=0;exitDy=0;" edge="1" parent="1" source="pb3BleHSzqYTry7h2N2h-9">
          <mxGeometry width="50" height="50" relative="1" as="geometry">
            <mxPoint x="420" y="307" as="sourcePoint" />
            <mxPoint x="510" y="307" as="targetPoint" />
            <Array as="points">
              <mxPoint x="440" y="385" />
              <mxPoint x="440" y="310" />
            </Array>
          </mxGeometry>
        </mxCell>
        <mxCell id="pb3BleHSzqYTry7h2N2h-25" value="&lt;span style=&quot;font-size: 14px;&quot;&gt;&lt;b&gt;Z&lt;/b&gt;&lt;/span&gt;" style="text;strokeColor=none;align=center;fillColor=none;html=1;verticalAlign=middle;whiteSpace=wrap;rounded=0;" vertex="1" parent="1">
          <mxGeometry x="330" y="190" width="40" height="30" as="geometry" />
        </mxCell>
        <mxCell id="pb3BleHSzqYTry7h2N2h-26" value="&lt;span style=&quot;font-size: 14px;&quot;&gt;&lt;b&gt;Z&lt;/b&gt;&lt;/span&gt;" style="text;strokeColor=none;align=center;fillColor=none;html=1;verticalAlign=middle;whiteSpace=wrap;rounded=0;" vertex="1" parent="1">
          <mxGeometry x="330" y="370" width="40" height="30" as="geometry" />
        </mxCell>
        <mxCell id="pb3BleHSzqYTry7h2N2h-27" value="&lt;span style=&quot;font-size: 14px;&quot;&gt;&lt;b&gt;Z&lt;/b&gt;&lt;/span&gt;" style="text;strokeColor=none;align=center;fillColor=none;html=1;verticalAlign=middle;whiteSpace=wrap;rounded=0;" vertex="1" parent="1">
          <mxGeometry x="660" y="280" width="40" height="30" as="geometry" />
        </mxCell>
        <mxCell id="pb3BleHSzqYTry7h2N2h-28" value="" style="endArrow=none;html=1;rounded=0;exitX=0.5;exitY=0;exitDx=0;exitDy=0;" edge="1" parent="1" source="pb3BleHSzqYTry7h2N2h-13">
          <mxGeometry width="50" height="50" relative="1" as="geometry">
            <mxPoint x="240" y="330" as="sourcePoint" />
            <mxPoint x="240" y="270" as="targetPoint" />
          </mxGeometry>
        </mxCell>
        <mxCell id="pb3BleHSzqYTry7h2N2h-29" value="" style="endArrow=none;html=1;rounded=0;" edge="1" parent="1">
          <mxGeometry width="50" height="50" relative="1" as="geometry">
            <mxPoint x="200" y="270" as="sourcePoint" />
            <mxPoint x="240" y="270" as="targetPoint" />
          </mxGeometry>
        </mxCell>
        <mxCell id="pb3BleHSzqYTry7h2N2h-33" value="" style="endArrow=none;dashed=1;html=1;rounded=0;" edge="1" parent="1">
          <mxGeometry width="50" height="50" relative="1" as="geometry">
            <mxPoint x="200" y="270" as="sourcePoint" />
            <mxPoint x="200" y="240" as="targetPoint" />
          </mxGeometry>
        </mxCell>
        <mxCell id="pb3BleHSzqYTry7h2N2h-34" value="" style="endArrow=none;dashed=1;html=1;rounded=0;exitX=0.111;exitY=0;exitDx=0;exitDy=0;exitPerimeter=0;" edge="1" parent="1" source="pb3BleHSzqYTry7h2N2h-1">
          <mxGeometry width="50" height="50" relative="1" as="geometry">
            <mxPoint x="200" y="160" as="sourcePoint" />
            <mxPoint x="200" y="120" as="targetPoint" />
          </mxGeometry>
        </mxCell>
        <mxCell id="pb3BleHSzqYTry7h2N2h-35" value="" style="endArrow=none;html=1;rounded=0;entryX=0.5;entryY=0;entryDx=0;entryDy=0;" edge="1" parent="1" target="pb3BleHSzqYTry7h2N2h-8">
          <mxGeometry width="50" height="50" relative="1" as="geometry">
            <mxPoint x="240" y="120" as="sourcePoint" />
            <mxPoint x="470" y="270" as="targetPoint" />
          </mxGeometry>
        </mxCell>
        <mxCell id="pb3BleHSzqYTry7h2N2h-36" value="" style="endArrow=none;html=1;rounded=0;" edge="1" parent="1">
          <mxGeometry width="50" height="50" relative="1" as="geometry">
            <mxPoint x="200" y="120" as="sourcePoint" />
            <mxPoint x="240" y="120" as="targetPoint" />
          </mxGeometry>
        </mxCell>
        <mxCell id="pb3BleHSzqYTry7h2N2h-37" value="" style="endArrow=none;html=1;rounded=0;" edge="1" parent="1">
          <mxGeometry width="50" height="50" relative="1" as="geometry">
            <mxPoint x="240" y="120" as="sourcePoint" />
            <mxPoint x="240" y="60" as="targetPoint" />
          </mxGeometry>
        </mxCell>
        <mxCell id="pb3BleHSzqYTry7h2N2h-38" value="" style="endArrow=none;html=1;rounded=0;" edge="1" parent="1">
          <mxGeometry width="50" height="50" relative="1" as="geometry">
            <mxPoint x="320" y="120" as="sourcePoint" />
            <mxPoint x="320" y="60" as="targetPoint" />
          </mxGeometry>
        </mxCell>
        <mxCell id="pb3BleHSzqYTry7h2N2h-39" value="" style="endArrow=none;html=1;rounded=0;" edge="1" parent="1">
          <mxGeometry width="50" height="50" relative="1" as="geometry">
            <mxPoint x="320" y="120" as="sourcePoint" />
            <mxPoint x="570" y="120" as="targetPoint" />
          </mxGeometry>
        </mxCell>
        <mxCell id="pb3BleHSzqYTry7h2N2h-40" value="" style="endArrow=none;html=1;rounded=0;exitX=0.5;exitY=0;exitDx=0;exitDy=0;" edge="1" parent="1" source="pb3BleHSzqYTry7h2N2h-18">
          <mxGeometry width="50" height="50" relative="1" as="geometry">
            <mxPoint x="570" y="210" as="sourcePoint" />
            <mxPoint x="570" y="120" as="targetPoint" />
          </mxGeometry>
        </mxCell>
        <mxCell id="pb3BleHSzqYTry7h2N2h-41" value="&lt;font style=&quot;font-size: 18px;&quot;&gt;&lt;b style=&quot;&quot;&gt;D0&lt;/b&gt;&lt;/font&gt;" style="text;strokeColor=none;align=center;fillColor=none;html=1;verticalAlign=middle;whiteSpace=wrap;rounded=0;" vertex="1" parent="1">
          <mxGeometry x="30" y="170" width="60" height="30" as="geometry" />
        </mxCell>
        <mxCell id="pb3BleHSzqYTry7h2N2h-42" value="&lt;font style=&quot;font-size: 18px;&quot;&gt;&lt;b style=&quot;&quot;&gt;D1&lt;/b&gt;&lt;/font&gt;" style="text;strokeColor=none;align=center;fillColor=none;html=1;verticalAlign=middle;whiteSpace=wrap;rounded=0;" vertex="1" parent="1">
          <mxGeometry x="30" y="200" width="60" height="30" as="geometry" />
        </mxCell>
        <mxCell id="pb3BleHSzqYTry7h2N2h-43" value="&lt;font style=&quot;font-size: 18px;&quot;&gt;&lt;b style=&quot;&quot;&gt;D2&lt;/b&gt;&lt;/font&gt;" style="text;strokeColor=none;align=center;fillColor=none;html=1;verticalAlign=middle;whiteSpace=wrap;rounded=0;" vertex="1" parent="1">
          <mxGeometry x="30" y="355" width="60" height="30" as="geometry" />
        </mxCell>
        <mxCell id="pb3BleHSzqYTry7h2N2h-44" value="&lt;font style=&quot;font-size: 18px;&quot;&gt;&lt;b style=&quot;&quot;&gt;D3&lt;/b&gt;&lt;/font&gt;" style="text;strokeColor=none;align=center;fillColor=none;html=1;verticalAlign=middle;whiteSpace=wrap;rounded=0;" vertex="1" parent="1">
          <mxGeometry x="30" y="385" width="60" height="30" as="geometry" />
        </mxCell>
        <mxCell id="pb3BleHSzqYTry7h2N2h-45" value="&lt;font style=&quot;font-size: 18px;&quot;&gt;&lt;b style=&quot;&quot;&gt;Sel[0]&lt;/b&gt;&lt;/font&gt;" style="text;strokeColor=none;align=center;fillColor=none;html=1;verticalAlign=middle;whiteSpace=wrap;rounded=0;" vertex="1" parent="1">
          <mxGeometry x="210" y="30" width="60" height="30" as="geometry" />
        </mxCell>
        <mxCell id="pb3BleHSzqYTry7h2N2h-46" value="&lt;font style=&quot;font-size: 18px;&quot;&gt;&lt;b style=&quot;&quot;&gt;Sel[1]&lt;/b&gt;&lt;/font&gt;" style="text;strokeColor=none;align=center;fillColor=none;html=1;verticalAlign=middle;whiteSpace=wrap;rounded=0;" vertex="1" parent="1">
          <mxGeometry x="290" y="30" width="60" height="30" as="geometry" />
        </mxCell>
        <mxCell id="pb3BleHSzqYTry7h2N2h-49" value="" style="endArrow=none;html=1;rounded=0;entryX=0.006;entryY=0.326;entryDx=0;entryDy=0;entryPerimeter=0;exitX=1;exitY=0.5;exitDx=0;exitDy=0;" edge="1" parent="1" source="pb3BleHSzqYTry7h2N2h-1" target="pb3BleHSzqYTry7h2N2h-14">
          <mxGeometry width="50" height="50" relative="1" as="geometry">
            <mxPoint x="390" y="280" as="sourcePoint" />
            <mxPoint x="440" y="230" as="targetPoint" />
            <Array as="points">
              <mxPoint x="440" y="205" />
              <mxPoint x="440" y="283" />
            </Array>
          </mxGeometry>
        </mxCell>
        <mxCell id="pb3BleHSzqYTry7h2N2h-50" value="" style="endArrow=none;html=1;rounded=0;exitX=1;exitY=0.5;exitDx=0;exitDy=0;" edge="1" parent="1" source="pb3BleHSzqYTry7h2N2h-14">
          <mxGeometry width="50" height="50" relative="1" as="geometry">
            <mxPoint x="740" y="340" as="sourcePoint" />
            <mxPoint x="790" y="295" as="targetPoint" />
          </mxGeometry>
        </mxCell>
      </root>
    </mxGraphModel>
  </diagram>
</mxfile>
